# xmcd
#
# Track frame offsets: 
#        150
#        22353
#        40573
#        67775
#        84963
#        100680
#        120590
#        139088
#        163755
#        181290
#        200780
#        230790
#        255785
#
# Disc length: 3735 seconds
#
# Revision: 4
# Processed by: cddbd v1.5.2PL0 Copyright (c) Steve Scherf et al.
# Submitted via: ExactAudioCopy v1.0b3
#
DISCID=a60e950d
DTITLE=Clarence 'Gatemouth' Brown - The Man
DYEAR=1995
DGENRE=Blues
TTITLE0=Honky Tonk
TTITLE1=Early In The Morning
TTITLE2=You Can Disagree
TTITLE3=Say You Love Me
TTITLE4=I Wonder
TTITLE5=Unchained Melody
TTITLE6=Big Mammou
TTITLE7=There You Are
TTITLE8=Solid Gold Plated Fool
TTITLE9=Old Folks Cry A Lot More (Than We'll Ever Know)
TTITLE10=Jambalaya
TTITLE11=Someday My Luck Will Change
TTITLE12=Up Jumped The Devil
EXTD=YEAR: 1994
EXTT0=
EXTT1=
EXTT2=
EXTT3=
EXTT4=
EXTT5=
EXTT6=
EXTT7=
EXTT8=
EXTT9=
EXTT10=
EXTT11=
EXTT12=
PLAYORDER=
